<mxfile host="Electron" agent="Mozilla/5.0 (Macintosh; Intel Mac OS X 10_15_7) AppleWebKit/537.36 (KHTML, like Gecko) draw.io/25.0.2 Chrome/128.0.6613.186 Electron/32.2.5 Safari/537.36" version="25.0.2">
  <diagram name="Страница — 1" id="ClpGpsFxEp234C6c3Qxi">
    <mxGraphModel dx="4749" dy="2465" grid="1" gridSize="10" guides="1" tooltips="1" connect="1" arrows="1" fold="1" page="1" pageScale="1" pageWidth="1169" pageHeight="827" math="0" shadow="0">
      <root>
        <mxCell id="0" />
        <mxCell id="1" parent="0" />
        <mxCell id="Wist2KOIOZQnMK4WS_pB-1" value="" style="shape=rect;fillColor=#fff2cc;strokeColor=none;fontSize=24;html=1;whiteSpace=wrap;align=left;verticalAlign=top;spacing=5;rounded=0;" parent="1" vertex="1">
          <mxGeometry x="-3330" y="-1156" width="850" height="100" as="geometry" />
        </mxCell>
        <mxCell id="Wist2KOIOZQnMK4WS_pB-2" value="" style="shape=rect;fillColor=#fff2cc;strokeColor=none;fontSize=24;html=1;whiteSpace=wrap;align=left;verticalAlign=top;spacing=5;rounded=0;" parent="1" vertex="1">
          <mxGeometry x="-3330" y="-1432.8" width="850" height="256.8" as="geometry" />
        </mxCell>
        <mxCell id="Wist2KOIOZQnMK4WS_pB-3" value="T1 - Создание микросервиса получения&amp;nbsp;&lt;div&gt;текущих ставок&lt;/div&gt;" style="shape=rect;fillColor=#ffe6cc;strokeColor=#d79b00;fontSize=18;html=1;whiteSpace=wrap;align=left;verticalAlign=top;spacing=5;rounded=0;" parent="1" vertex="1">
          <mxGeometry x="-3117" y="-1406" width="390" height="60" as="geometry" />
        </mxCell>
        <mxCell id="Wist2KOIOZQnMK4WS_pB-4" value="&lt;span style=&quot;text-align: left;&quot;&gt;T2 - Интерфейс для просмотра информации о ставках&lt;/span&gt;" style="shape=rect;fillColor=#ffe6cc;strokeColor=#d79b00;fontSize=18;html=1;whiteSpace=wrap;align=center;verticalAlign=top;spacing=5;rounded=0;" parent="1" vertex="1">
          <mxGeometry x="-2900" y="-1326" width="390" height="60" as="geometry" />
        </mxCell>
        <mxCell id="Wist2KOIOZQnMK4WS_pB-5" value="Система кол-центра" style="rounded=0;whiteSpace=wrap;html=1;fillColor=#f5f5f5;fontColor=#333333;strokeColor=#666666;fontSize=18;" parent="1" vertex="1">
          <mxGeometry x="-3460" y="-1432.8" width="120" height="256.8" as="geometry" />
        </mxCell>
        <mxCell id="Wist2KOIOZQnMK4WS_pB-6" value="АБС" style="rounded=0;whiteSpace=wrap;html=1;fillColor=#f5f5f5;fontColor=#333333;strokeColor=#666666;fontSize=18;" parent="1" vertex="1">
          <mxGeometry x="-3460" y="-1156" width="120" height="100" as="geometry" />
        </mxCell>
        <mxCell id="Wist2KOIOZQnMK4WS_pB-7" value="Q1" style="shape=step;perimeter=stepPerimeter;whiteSpace=wrap;html=1;fixedSize=1;size=10;fillColor=#f5f5f5;strokeColor=#666666;fontSize=18;fontStyle=1;align=center;rounded=0;fontColor=#333333;" parent="1" vertex="1">
          <mxGeometry x="-3330" y="-1526" width="410" height="74.4" as="geometry" />
        </mxCell>
        <mxCell id="Wist2KOIOZQnMK4WS_pB-9" value="T4 - Разработка представления&amp;nbsp;&lt;div&gt;для получения текущих ставок&lt;/div&gt;" style="shape=rect;fillColor=#ffe6cc;strokeColor=#d79b00;fontSize=18;html=1;whiteSpace=wrap;align=center;verticalAlign=top;spacing=5;rounded=0;" parent="1" vertex="1">
          <mxGeometry x="-3310" y="-1136" width="300" height="60" as="geometry" />
        </mxCell>
        <mxCell id="Wist2KOIOZQnMK4WS_pB-10" value="2025" style="shape=step;perimeter=stepPerimeter;whiteSpace=wrap;html=1;fixedSize=1;size=10;fillColor=#f5f5f5;strokeColor=#666666;fontSize=18;fontStyle=1;align=center;rounded=0;fontColor=#333333;" parent="1" vertex="1">
          <mxGeometry x="-3330" y="-1620" width="840" height="74.4" as="geometry" />
        </mxCell>
        <mxCell id="Wist2KOIOZQnMK4WS_pB-11" value="Q2" style="shape=step;perimeter=stepPerimeter;whiteSpace=wrap;html=1;fixedSize=1;size=10;fillColor=#f5f5f5;strokeColor=#666666;fontSize=18;fontStyle=1;align=center;rounded=0;fontColor=#333333;" parent="1" vertex="1">
          <mxGeometry x="-2900" y="-1526" width="410" height="74.4" as="geometry" />
        </mxCell>
        <mxCell id="Wist2KOIOZQnMK4WS_pB-14" value="T3 - Добавление функционала отправки&amp;nbsp;&lt;div&gt;ставок по электронной почте&lt;/div&gt;" style="shape=rect;fillColor=#ffe6cc;strokeColor=#d79b00;fontSize=18;html=1;whiteSpace=wrap;align=left;verticalAlign=top;spacing=5;rounded=0;" parent="1" vertex="1">
          <mxGeometry x="-2900" y="-1246" width="390" height="60" as="geometry" />
        </mxCell>
      </root>
    </mxGraphModel>
  </diagram>
</mxfile>
